<svg xmlns="http://www.w3.org/2000/svg" viewBox="0 0 471.94 473.58"><polygon points="367.24 309.58 332.1 227.24 297.25 309.58 367.24 309.58" fill="#07bab5"/><polygon points="148.24 309.58 210.11 164.64 190.68 119.13 109.4 309.58 148.24 309.58" fill="#07bab5"/><path d="M424.11,498.61,409,534.08q6.36.34,12.8.35c121.33,0,221.34-91.27,235.14-208.9H620.83C607.35,422.58,524.6,497.46,424.11,498.61Z" transform="translate(-184.97 -60.85)" fill="#07bab5"/><path d="M487.3,225.51,467.88,180,339.39,481A201,201,0,0,1,220.77,297.64c0-111,90-201,201-201,101.54,0,185.49,75.31,199.06,173.12h36.09C643.12,152.12,543.11,60.85,421.77,60.85,291,60.85,185,166.86,185,297.64,185,406.7,258.71,498.52,359,526Z" transform="translate(-184.97 -60.85)" fill="#07bab5"/><polygon points="210.11 164.64 231.84 211.38 212 254.14 179.93 188.48 210.11 164.64" fill="#07bab5"/><polygon points="301.73 163.11 323.46 209.86 303.61 252.61 271.55 186.95 301.73 163.11" fill="#07bab5"/></svg>