<svg xmlns="http://www.w3.org/2000/svg" viewBox="0 0 702.97 128.41"><path d="M281.5,279.71q8.33,0,12.85,5.38t4.52,16.25V330H287.49v-25.8q0-14.22-9.65-14.22a10.2,10.2,0,0,0-8.28,4.11q-3.3,4.11-3.3,11.22V330H254.88v-25.8Q254.88,290,245,290a10.49,10.49,0,0,0-8.58,4.11c-2.21,2.74-3.3,6.48-3.3,11.22V330H221.77V280.42h11.38v6.9h.1q6.19-7.6,15.44-7.61,10.45,0,14.83,8.22h.2Q270.13,279.71,281.5,279.71Z" transform="translate(-69.46 -233.43)" fill="#fff"/><path d="M358.19,304.59a41,41,0,0,1-.31,4.57H321.72a13.81,13.81,0,0,0,4.88,8.28,14.32,14.32,0,0,0,9.24,3,15.11,15.11,0,0,0,12.39-5.79l7.93,6.8q-7.21,9.36-20.93,9.35-11,0-18.13-7.06t-7.16-18.54q0-11.26,6.86-18.38a23,23,0,0,1,17.31-7.11q10.88,0,17.48,7T358.19,304.59Zm-15.64-11.93a11.37,11.37,0,0,0-7.83-2.69,12.93,12.93,0,0,0-8.17,2.64,13.13,13.13,0,0,0-4.62,7.41h24.78A13.81,13.81,0,0,0,342.55,292.66Z" transform="translate(-69.46 -233.43)" fill="#fff"/><path d="M406.85,255.22h11.27V330H407.25v-6.6h-.2q-5.69,7.41-16.05,7.41a23.05,23.05,0,0,1-17.27-7q-6.81-7-6.8-18.38,0-11.18,6.85-18.44a22.58,22.58,0,0,1,17.12-7.26q9.94,0,15.74,6.7h.21Zm-24.33,61a13.55,13.55,0,0,0,10.21,4.17,14.06,14.06,0,0,0,10.36-4.17,14.57,14.57,0,0,0,4.16-10.76,15.82,15.82,0,0,0-4.06-11.13A13.46,13.46,0,0,0,392.83,290a13.62,13.62,0,0,0-10.21,4.26c-2.74,2.85-4.11,6.6-4.11,11.28A14.83,14.83,0,0,0,382.52,316.27Z" transform="translate(-69.46 -233.43)" fill="#fff"/><path d="M467.49,330.6q-15.44,0-25.9-9.7t-10.47-26.77q0-15.94,9.7-26.51t26.67-10.57q17.16,0,28.44,13.82l-9,7.62q-8.13-9.86-19.4-9.86-10.56,0-17.07,7.06t-6.5,18.44q0,11.07,6.61,18t17,7q11.47,0,19.4-9.85l9,7.72A34.84,34.84,0,0,1,467.49,330.6Z" transform="translate(-69.46 -233.43)" fill="#fff"/><path d="M543,280.42h11.38V330H543.47v-6.6h-.2q-5.49,7.41-15.75,7.41a22.91,22.91,0,0,1-17.22-7q-6.75-7-6.75-18.38,0-11.18,6.8-18.44a22.42,22.42,0,0,1,17.07-7.26q9.75,0,15.34,6.7h.2Zm-13.61,40a13.55,13.55,0,0,0,10-4.17,14.65,14.65,0,0,0,4.11-10.76,16,16,0,0,0-4-11.08A13,13,0,0,0,529.35,290a13.47,13.47,0,0,0-10.16,4.26c-2.71,2.85-4.06,6.6-4.06,11.28a15,15,0,0,0,4,10.76A13.51,13.51,0,0,0,529.35,320.44Z" transform="translate(-69.46 -233.43)" fill="#fff"/><path d="M569.37,330V255.22h11.38V330Z" transform="translate(-69.46 -233.43)" fill="#fff"/><path d="M608.13,270.87a7.52,7.52,0,0,1-5.44,2.23,7.63,7.63,0,0,1-7.62-7.62,7.22,7.22,0,0,1,2.24-5.28,7.32,7.32,0,0,1,5.38-2.23,7.52,7.52,0,0,1,5.44,2.23,7.15,7.15,0,0,1,2.28,5.28A7.28,7.28,0,0,1,608.13,270.87ZM597,330V280.42h11.38V330Z" transform="translate(-69.46 -233.43)" fill="#fff"/><path d="M651.14,279.71A22.53,22.53,0,0,1,668.31,287q6.81,7.26,6.81,18.44,0,11.37-6.81,18.38a23.05,23.05,0,0,1-17.27,7q-10,0-15.64-6.91h-.1V350.1H623.92V280.42H635.3v6.09Q641,279.72,651.14,279.71ZM639,316.27a14.06,14.06,0,0,0,10.36,4.17,13.55,13.55,0,0,0,10.21-4.17,14.83,14.83,0,0,0,4-10.76c0-4.68-1.38-8.43-4.12-11.28A13.61,13.61,0,0,0,649.21,290a13.46,13.46,0,0,0-10.36,4.41,15.82,15.82,0,0,0-4.06,11.13A14.57,14.57,0,0,0,639,316.27Z" transform="translate(-69.46 -233.43)" fill="#fff"/><path d="M732.3,304.59a43.22,43.22,0,0,1-.3,4.57H695.84a13.8,13.8,0,0,0,4.87,8.28,14.37,14.37,0,0,0,9.25,3,15.14,15.14,0,0,0,12.39-5.79l7.92,6.8q-7.21,9.36-20.92,9.35-11,0-18.13-7.06t-7.17-18.54q0-11.26,6.86-18.38a23,23,0,0,1,17.32-7.11q10.86,0,17.47,7T732.3,304.59Zm-15.64-11.93a11.35,11.35,0,0,0-7.82-2.69,12.94,12.94,0,0,0-8.18,2.64A13.13,13.13,0,0,0,696,300h24.79A13.82,13.82,0,0,0,716.66,292.66Z" transform="translate(-69.46 -233.43)" fill="#fff"/><path d="M771,279.71h1.42V292.4c-1.76-.13-2.91-.2-3.45-.2q-6.3,0-9.91,4a14.88,14.88,0,0,0-3.61,10.31V330H744.09V280.42h11.37v7.51h.11Q761.55,279.71,771,279.71Z" transform="translate(-69.46 -233.43)" fill="#fff"/><polygon points="99.58 83.94 90.05 61.61 80.6 83.94 99.58 83.94" fill="#07bab5"/><polygon points="40.2 83.94 56.97 44.64 51.7 32.3 29.66 83.94 40.2 83.94" fill="#07bab5"/><path d="M134.3,352.13l-4.1,9.62c1.15.06,2.3.09,3.47.09a64.21,64.21,0,0,0,63.76-56.64h-9.79A54.5,54.5,0,0,1,134.3,352.13Z" transform="translate(-69.46 -233.43)" fill="#07bab5"/><path d="M151.44,278.08l-5.27-12.34-34.84,81.62a54.5,54.5,0,1,1,76.31-57.28h9.79a64.21,64.21,0,1,0-80.77,69.48Z" transform="translate(-69.46 -233.43)" fill="#07bab5"/><polygon points="56.97 44.64 62.86 57.32 57.48 68.91 48.79 51.1 56.97 44.64" fill="#07bab5"/><polygon points="81.81 44.23 87.71 56.9 82.32 68.5 73.63 50.69 81.81 44.23" fill="#07bab5"/></svg>