<?xml version="1.0" encoding="UTF-8"?>
<svg id="Layer_1" data-name="Layer 1" xmlns="http://www.w3.org/2000/svg" xmlns:xlink="http://www.w3.org/1999/xlink" viewBox="0 0 1016.44 173.38">
  <defs>
    <style>
      .cls-1 {
        fill-rule: evenodd;
      }

      .cls-1, .cls-2, .cls-3 {
        fill: #00edff;
      }

      .cls-2 {
        clip-rule: evenodd;
      }

      .cls-4 {
        fill: #fff;
      }

      .cls-5 {
        clip-path: url(#clippath);
      }
    </style>
    <clipPath id="clippath">
      <path class="cls-2" d="M102.56,88.53c7.31,0,13.28,5.98,13.28,13.28v52.16c0,7.3-5.97,13.28-13.28,13.28s-13.28-5.98-13.28-13.28v-65.44h13.28ZM157.69,140.93c-7.3,0-13.28-5.98-13.28-13.28v-39.12h13.28c7.3,0,13.28,5.98,13.28,13.28v25.84c0,7.31-5.98,13.28-13.28,13.28ZM47.42,140.93c-7.3,0-13.28-5.98-13.28-13.28v-39.12h13.28c7.3,0,13.28,5.98,13.28,13.28v25.84c0,7.31-5.97,13.28-13.28,13.28ZM20.86,34.43c7.3,0,13.28,5.98,13.28,13.28v40.82h-13.28c-7.31,0-13.28-5.98-13.28-13.28v-27.54c0-7.31,5.97-13.28,13.28-13.28ZM131.13,34.43c7.3,0,13.28,5.98,13.28,13.28v40.82h-13.28c-7.3,0-13.28-5.98-13.28-13.28v-27.54c0-7.31,5.98-13.28,13.28-13.28ZM75.99,88.53c-7.3,0-13.28-5.98-13.28-13.28V21.39c0-7.3,5.97-13.28,13.28-13.28,7.31,0,13.28,5.98,13.28,13.28v67.14h-13.28Z"/>
    </clipPath>
  </defs>
  <path class="cls-4" d="M240.16,61.63c1.97-3.23,5.03-6.15,9.18-8.76,4.15-2.6,9.46-3.9,15.93-3.9s11.78,1.34,16.35,4.01c4.57,2.67,8.05,6.26,10.44,10.76,2.39-3.65,5.84-7.03,10.34-10.12,4.5-3.09,10.41-4.64,17.72-4.64,10.26,0,18.11,3.06,23.52,9.18,5.41,6.12,8.12,13.75,8.12,22.89v44.09c0,.84-.35,1.26-1.06,1.26h-8.44c-.71,0-1.06-.42-1.06-1.26v-40.93c0-8.02-1.86-14.24-5.59-18.67-3.73-4.43-9.25-6.64-16.56-6.64-15.47,0-23.21,8.93-23.21,26.79v39.45c0,.84-.35,1.26-1.05,1.26h-8.23c-.71,0-1.06-.42-1.06-1.26v-40.93c0-8.02-1.86-14.24-5.59-18.67-3.73-4.43-9.18-6.64-16.35-6.64-15.61,0-23.42,8.93-23.42,26.79v39.45c0,.84-.35,1.26-1.05,1.26h-8.44c-.71,0-1.06-.42-1.06-1.26V51.71c0-.85.35-1.27,1.06-1.27h1.06c2.39,0,4.39,1.02,6.01,3.06,1.62,2.04,2.43,4.75,2.43,8.12Z"/>
  <path class="cls-4" d="M375.6,92.64c.7,9.15,3.62,15.75,8.75,19.83,5.13,4.08,11.43,6.12,18.88,6.12,6.75,0,11.88-1.02,15.4-3.06,3.51-2.04,6.4-4.18,8.65-6.44.28-.42.63-.88,1.06-1.37.42-.49.91-.74,1.48-.74.7,0,1.16.32,1.37.95.21.63.32,1.3.32,2,0,2.95-1.26,5.84-3.8,8.65-2.53,2.82-5.98,5.14-10.34,6.96-4.36,1.83-9.36,2.74-14.98,2.74-5.91,0-11.75-1.26-17.51-3.8-5.77-2.53-10.55-6.71-14.35-12.55-3.8-5.84-5.7-13.53-5.7-23.1,0-7.73,1.48-14.59,4.43-20.57,2.95-5.98,7.07-10.69,12.34-14.14,5.27-3.44,11.21-5.17,17.83-5.17,8.02,0,14.45,1.69,19.3,5.06,4.85,3.38,8.37,7.7,10.55,12.97,2.18,5.27,3.27,10.94,3.27,16.98v3.48c0,1.06-.07,2-.21,2.85-.14,1.55-1.05,2.32-2.74,2.32h-54ZM375.6,83.57h46.2c.14-4.08-.42-8.02-1.69-11.81-1.27-3.8-3.55-6.93-6.86-9.39-3.31-2.46-7.98-3.69-14.03-3.69-6.61,0-11.99,2.18-16.14,6.54-4.15,4.36-6.64,10.48-7.49,18.35Z"/>
  <path class="cls-4" d="M505.55,62.05V10.57c0-.98.35-1.48,1.06-1.48h.84c2.53,0,4.61.99,6.22,2.95,1.62,1.97,2.43,4.72,2.43,8.23v104.85c0,.84-.35,1.26-1.06,1.26h-8.44c-.71,0-1.06-.42-1.06-1.26v-10.76c-3.09,4.92-7.03,8.48-11.81,10.65-4.78,2.18-9.92,3.27-15.4,3.27-7.59,0-14.1-1.79-19.52-5.38-5.41-3.59-9.57-8.37-12.45-14.35-2.88-5.98-4.32-12.55-4.32-19.73,0-7.73,1.58-14.59,4.75-20.57,3.16-5.98,7.52-10.69,13.08-14.14,5.56-3.44,11.92-5.17,19.09-5.17,5.62,0,10.79,1.16,15.5,3.48,4.71,2.32,8.4,5.52,11.08,9.6ZM477.92,118.38c4.64,0,9.03-.91,13.18-2.74,4.15-1.83,7.56-4.88,10.23-9.17,2.67-4.29,4.01-10.16,4.01-17.62s-1.37-13.75-4.12-18.04c-2.74-4.29-6.12-7.35-10.13-9.18-4.01-1.83-8.05-2.74-12.13-2.74-8.16,0-14.59,2.78-19.3,8.33-4.72,5.56-7.07,12.76-7.07,21.62,0,6.47,1.23,11.92,3.69,16.35,2.46,4.43,5.62,7.74,9.49,9.92,3.87,2.18,7.91,3.27,12.13,3.27Z"/>
  <path class="cls-4" d="M583.61,128.5c-10.83,0-20.33-2.43-28.48-7.28-8.16-4.85-14.49-11.78-18.99-20.78-4.5-9-6.75-19.76-6.75-32.28s2.39-23.73,7.17-32.8c4.78-9.07,11.36-16.07,19.73-20.99,8.37-4.92,17.96-7.38,28.8-7.38,5.77,0,10.83.49,15.19,1.48,4.36.99,8.37,2.25,12.02,3.8,4.08,1.97,6.64,4.15,7.7,6.54,1.06,2.39,1.23,5.42.53,9.07l-1.26,5.27c-.56,1.55-1.27,2.32-2.11,2.32-.71,0-1.76-.35-3.16-1.05-4.36-2.39-8.69-4.25-12.97-5.59-4.29-1.33-9.46-2-15.51-2-10.41,0-18.85,3.41-25.31,10.23-6.47,6.82-9.7,17.19-9.7,31.12s3.3,23.63,9.91,30.38c6.61,6.75,15.19,10.13,25.74,10.13,7.45,0,13.85-1.48,19.2-4.43,5.34-2.95,9.35-5.98,12.02-9.07.7-.84,1.3-1.37,1.79-1.58.49-.21,1.02-.32,1.58-.32,2.11,0,3.16,1.69,3.16,5.06,0,2.39-.71,5.27-2.11,8.65-1.41,3.38-3.69,6.72-6.85,10.02-3.17,3.31-7.31,6.05-12.45,8.23-5.14,2.18-11.43,3.27-18.88,3.27Z"/>
  <path class="cls-4" d="M687.4,116.48c-2.82,3.8-6.4,6.72-10.76,8.75-4.36,2.04-9,3.06-13.92,3.06-7.88,0-14.52-1.9-19.93-5.7-5.42-3.8-9.5-8.86-12.24-15.19-2.74-6.33-4.11-13.29-4.11-20.89s1.48-14.94,4.43-21.2c2.95-6.26,7.2-11.21,12.76-14.87,5.55-3.65,12.06-5.48,19.51-5.48,6.19,0,11.43,1.13,15.72,3.38,4.29,2.25,7.7,4.92,10.23,8.02,1.13-3.23,2.99-5.59,5.59-7.07,2.6-1.48,5.73-2.22,9.39-2.22h1.06c1.55,0,2.32.84,2.32,2.53v74.47c0,1.55-.77,2.32-2.32,2.32h-15.61c-1.41,0-2.11-.77-2.11-2.32v-7.59ZM667.15,109.3c2.67,0,5.59-.6,8.76-1.79,3.16-1.19,5.87-3.41,8.12-6.64,2.25-3.23,3.38-8.02,3.38-14.35s-1.13-11.08-3.38-14.24c-2.25-3.17-4.92-5.27-8.02-6.33-3.1-1.06-5.98-1.58-8.65-1.58-2.82,0-5.8.63-8.97,1.9-3.16,1.27-5.84,3.52-8.02,6.75-2.18,3.24-3.27,7.74-3.27,13.5,0,6.05,1.16,10.73,3.48,14.03,2.32,3.31,5.03,5.59,8.12,6.86,3.09,1.26,5.91,1.9,8.44,1.9Z"/>
  <path class="cls-4" d="M756.17,106.14c.28-.14.6-.35.95-.63.35-.28.74-.42,1.16-.42.84,0,1.44.32,1.79.95.35.63.53,1.3.53,2,0,2.82-.63,5.8-1.9,8.97-1.26,3.16-3.38,5.8-6.33,7.91-2.95,2.11-7.03,3.16-12.23,3.16-6.61,0-11.85-2.18-15.72-6.54-3.87-4.36-5.8-11.11-5.8-20.25V11.63c0-1.69.7-2.53,2.11-2.53h1.06c5.49,0,9.7,1.37,12.66,4.12,2.95,2.74,4.43,7.28,4.43,13.61v72.57c0,7.31,2.6,10.97,7.81,10.97,2.11,0,3.87-.35,5.27-1.05,1.4-.7,2.81-1.76,4.22-3.17Z"/>
  <path class="cls-4" d="M902.48,93.9c.7,5.63,3.16,9.91,7.38,12.87,4.22,2.95,9.56,4.43,16.03,4.43,5.34,0,9.77-.56,13.29-1.69,3.51-1.12,7.03-2.67,10.55-4.64,1.26-.84,2.39-1.27,3.38-1.27,1.54,0,2.32.99,2.32,2.95,0,2.95-1.09,6.12-3.27,9.5-2.18,3.37-5.59,6.3-10.23,8.75-4.64,2.46-10.83,3.69-18.56,3.69s-14.52-1.58-20.78-4.75c-6.26-3.16-11.22-7.87-14.87-14.13-3.66-6.26-5.49-13.96-5.49-23.1,0-8.02,1.58-15.12,4.75-21.31,3.17-6.19,7.66-11.04,13.5-14.55,5.84-3.52,12.69-5.27,20.57-5.27,8.44,0,15.3,1.72,20.57,5.17,5.27,3.45,9.14,7.91,11.6,13.4,2.46,5.49,3.69,11.32,3.69,17.51,0,2.11-.04,3.98-.11,5.59-.07,1.62-.18,2.99-.32,4.11-.14,1.83-1.34,2.74-3.59,2.74h-50.42ZM902.48,79.35h34.18c.28-2.39.03-4.89-.74-7.49s-2.36-4.82-4.75-6.65c-2.39-1.83-5.77-2.74-10.13-2.74-5.35,0-9.6,1.51-12.76,4.54-3.16,3.03-5.1,7.14-5.8,12.34Z"/>
  <path class="cls-4" d="M872.63,65.42c-2.88-6.19-7.07-11.08-12.55-14.66-5.49-3.59-12.31-5.38-20.46-5.38-6.05,0-11.18,1.2-15.4,3.59-4.22,2.39-7.38,5.21-9.5,8.44-.99-3.23-2.78-5.77-5.38-7.6-2.6-1.82-6.01-2.74-10.23-2.74h-1.06c-1.26,0-1.9.84-1.9,2.53v99.92c0,6.33,1.47,10.86,4.43,13.61,2.95,2.74,7.17,4.12,12.66,4.12h1.06c1.41,0,2.11-.85,2.11-2.53v-47.12c2.75,3.41,6.14,6.04,10.23,7.85,4.29,1.9,9.03,2.85,14.24,2.85,7.87,0,14.48-1.9,19.83-5.7,5.34-3.8,9.39-8.86,12.13-15.19,2.74-6.33,4.12-13.29,4.12-20.89s-1.44-14.91-4.32-21.1ZM852.69,100.55c-2.25,3.31-4.89,5.59-7.91,6.86-3.03,1.26-5.8,1.9-8.33,1.9s-5.42-.6-8.65-1.79c-3.24-1.19-6.01-3.44-8.33-6.75-2.32-3.3-3.48-8.05-3.48-14.24s1.16-11.08,3.48-14.24c2.32-3.17,5.03-5.27,8.12-6.33,3.09-1.06,5.91-1.58,8.44-1.58,2.81,0,5.77.63,8.86,1.9,3.09,1.27,5.73,3.48,7.91,6.64,2.18,3.17,3.27,7.7,3.27,13.61s-1.13,10.73-3.38,14.03Z"/>
  <path class="cls-4" d="M784.55,65c0-6.33-1.48-10.9-4.43-13.71-2.95-2.81-7.1-4.22-12.45-4.22h-1.06c-1.41,0-2.11.84-2.11,2.53l-.1,6.68v52.39c0,6.33,1.47,10.86,4.43,13.61,2.95,2.74,7.17,4.12,12.66,4.12h1.06c1.41,0,2.11-.85,2.11-2.53l-.1-58.86Z"/>
  <path class="cls-4" d="M774.43,38c3.23,0,5.94-1.12,8.12-3.38,2.18-2.25,3.27-4.99,3.27-8.23s-1.09-6.15-3.27-8.33c-2.18-2.18-4.89-3.27-8.12-3.27s-5.94,1.09-8.12,3.27c-2.18,2.18-3.27,4.96-3.27,8.33s1.09,5.98,3.27,8.23c2.18,2.25,4.88,3.38,8.12,3.38Z"/>
  <path class="cls-4" d="M1008.8,47.07h-2.32c-5.77,0-10.34.81-13.71,2.43-3.27,1.57-6.07,4.52-8.42,8.79-.71-2.96-1.94-5.3-3.72-7-1.14-1.08-2.51-1.89-4.01-2.56-.03-.01-.06-.03-.1-.04-.72-.32-1.48-.59-2.28-.81-.24-.07-.5-.12-.75-.18-.7-.16-1.41-.32-2.18-.41-.59-.08-1.24-.1-1.87-.13-.43-.02-.82-.09-1.26-.09h-1.37c-1.27,0-1.9.84-1.9,2.53v59.07c0,6.33,1.47,10.86,4.43,13.61,2.95,2.74,7.17,4.12,12.66,4.12h1.06c1.41,0,2.11-.85,2.11-2.53l-.07-40.99c.5-4.37,1.53-7.92,3.13-10.59,2.32-3.87,7.35-5.8,15.08-5.8h5.48c1.4,0,2.11-.84,2.11-2.53v-14.35c0-1.69-.71-2.53-2.11-2.53Z"/>
  <g>
    <path class="cls-1" d="M102.56,88.53c7.31,0,13.28,5.98,13.28,13.28v52.16c0,7.3-5.97,13.28-13.28,13.28s-13.28-5.98-13.28-13.28v-65.44h13.28ZM157.69,140.93c-7.3,0-13.28-5.98-13.28-13.28v-39.12h13.28c7.3,0,13.28,5.98,13.28,13.28v25.84c0,7.31-5.98,13.28-13.28,13.28ZM47.42,140.93c-7.3,0-13.28-5.98-13.28-13.28v-39.12h13.28c7.3,0,13.28,5.98,13.28,13.28v25.84c0,7.31-5.97,13.28-13.28,13.28ZM20.86,34.43c7.3,0,13.28,5.98,13.28,13.28v40.82h-13.28c-7.31,0-13.28-5.98-13.28-13.28v-27.54c0-7.31,5.97-13.28,13.28-13.28ZM131.13,34.43c7.3,0,13.28,5.98,13.28,13.28v40.82h-13.28c-7.3,0-13.28-5.98-13.28-13.28v-27.54c0-7.31,5.98-13.28,13.28-13.28ZM75.99,88.53c-7.3,0-13.28-5.98-13.28-13.28V21.39c0-7.3,5.97-13.28,13.28-13.28,7.31,0,13.28,5.98,13.28,13.28v67.14h-13.28Z"/>
    <g class="cls-5">
      <rect class="cls-3" x="6.8" y="7.31" width="164.95" height="160.74" transform="translate(-.86 .88) rotate(-.56)"/>
    </g>
  </g>
</svg>